<svg xmlns="http://www.w3.org/2000/svg" version="1.1" xmlns:xlink="http://www.w3.org/1999/xlink" xmlns:svgjs="http://svgjs.dev/svgjs" width="2000" height="1999" viewBox="0 0 2000 1999"><g transform="matrix(1,0,0,1,-0.431486880466764,-0.4312711370263287)"><svg viewBox="0 0 343 343" data-background-color="#ffffff" preserveAspectRatio="xMidYMid meet" height="1999" width="2000" xmlns="http://www.w3.org/2000/svg" xmlns:xlink="http://www.w3.org/1999/xlink"><g id="tight-bounds" transform="matrix(1,0,0,1,0.0740000000000407,0.07400000000001228)"><svg viewBox="0 0 342.85155851775386 342.85155851775386" height="342.85155851775386" width="342.85155851775386"><rect width="342.85198974609375" height="342.85198974609375" fill="url(#d642ca97-bbc2-40bf-860a-a3f8ce95fd9b)" mask="url(#0bae279b-cb5a-42f4-8b15-f57ce5bcc6c7)" data-fill-palette-color="tertiary"></rect><g><svg></svg></g><g><svg viewBox="0 0 342.85155851775386 342.85155851775386" height="342.85155851775386" width="342.85155851775386"><g><path d="M0 171.426c0-94.676 76.75-171.426 171.426-171.426 94.676 0 171.426 76.75 171.426 171.426 0 94.676-76.75 171.426-171.426 171.426-94.676 0-171.426-76.75-171.426-171.426zM171.426 334.148c89.869 0 162.722-72.853 162.722-162.722 0-89.869-72.853-162.722-162.722-162.722-89.869 0-162.722 72.853-162.722 162.722 0 89.869 72.853 162.722 162.722 162.722z" data-fill-palette-color="tertiary" fill="url(#d642ca97-bbc2-40bf-860a-a3f8ce95fd9b)" stroke="transparent"></path><ellipse rx="164.56874808852186" ry="164.56874808852186" cx="171.42577925887693" cy="171.42577925887693" fill="url(#d642ca97-bbc2-40bf-860a-a3f8ce95fd9b)" stroke="transparent" stroke-width="0" fill-opacity="1" data-fill-palette-color="tertiary"></ellipse></g><g transform="matrix(1,0,0,1,64.84655864529837,123.16730045879115)"><svg viewBox="0 0 213.1584412271571 96.51695760017155" height="96.51695760017155" width="213.1584412271571"><g><svg viewBox="0 0 213.1584412271571 96.51695760017155" height="96.51695760017155" width="213.1584412271571"><g><svg viewBox="0 0 213.1584412271571 96.51695760017155" height="96.51695760017155" width="213.1584412271571"><g><svg viewBox="0 0 213.1584412271571 96.51695760017155" height="96.51695760017155" width="213.1584412271571"><g id="textblocktransform"><svg viewBox="0 0 213.1584412271571 96.51695760017155" height="96.51695760017155" width="213.1584412271571" id="textblock"><g><svg viewBox="0 0 213.1584412271571 96.51695760017155" height="96.51695760017155" width="213.1584412271571"><g transform="matrix(1,0,0,1,0,0)"><svg width="213.1584412271571" viewBox="3.0299999713897705 -35.0099983215332 77.30999755859375 35.0099983215332" height="96.51695760017155" data-palette-color="#111111"><path d="M38.04-31.81L38.04 0 31.69 0 31.69-8.59 9.38-8.59 9.38 0 3.03 0 3.03-17.5Q3.03-21.34 4.35-24.56 5.66-27.78 8.01-30.1 10.35-32.42 13.55-33.72 16.75-35.01 20.53-35.01L20.53-35.01 34.84-35.01Q35.5-35.01 36.08-34.77 36.67-34.52 37.11-34.08 37.55-33.64 37.79-33.06 38.04-32.47 38.04-31.81L38.04-31.81ZM9.38-17.5L9.38-14.94 31.69-14.94 31.69-28.66 20.53-28.66Q20.24-28.66 19.3-28.58 18.36-28.49 17.13-28.15 15.89-27.81 14.53-27.1 13.16-26.39 12.01-25.15 10.86-23.9 10.12-22.03 9.38-20.17 9.38-17.5L9.38-17.5ZM80.34-8.91L80.34-7.69Q80.34-6.52 79.94-5.18 79.54-3.83 78.62-2.69 77.71-1.54 76.24-0.77 74.78 0 72.65 0L72.65 0 48.56 0Q47.87 0 47.29-0.24 46.7-0.49 46.27-0.92 45.85-1.34 45.6-1.93 45.36-2.51 45.36-3.2L45.36-3.2 45.36-31.81Q45.36-32.47 45.6-33.06 45.85-33.64 46.27-34.08 46.7-34.52 47.29-34.77 47.87-35.01 48.56-35.01L48.56-35.01 69.8-35.01Q70.97-35.01 72.31-34.59 73.65-34.18 74.81-33.26 75.97-32.35 76.74-30.88 77.51-29.42 77.51-27.29L77.51-27.29 77.51-26.1Q77.51-24.41 76.95-22.47 76.39-20.53 75.14-18.8L75.14-18.8Q76.22-18.14 77.16-17.21 78.1-16.28 78.81-15.06 79.51-13.84 79.93-12.3 80.34-10.77 80.34-8.91L80.34-8.91ZM74-7.74L74-8.91Q74-10.16 73.61-11.15 73.22-12.13 72.51-12.84 71.8-13.55 70.8-13.93 69.8-14.31 68.55-14.31L68.55-14.31 54.25-14.31 54.25-20.7 65.7-20.7Q66.94-20.7 67.94-21.08 68.94-21.46 69.65-22.17 70.36-22.88 70.74-23.86 71.12-24.85 71.12-26.1L71.12-26.1 71.12-27.29Q71.12-28.66 69.8-28.66L69.8-28.66 51.71-28.66 51.71-6.35 72.65-6.35Q72.82-6.35 73.07-6.37 73.31-6.4 73.51-6.52 73.7-6.64 73.85-6.93 74-7.23 74-7.74L74-7.74Z" opacity="1" transform="matrix(1,0,0,1,0,0)" fill="#111111" class="wordmark-text-0" data-fill-palette-color="quaternary" id="text-0"></path></svg></g></svg></g></svg></g></svg></g><g></g></svg></g></svg></g></svg></g></svg></g><defs></defs><mask id="0bae279b-cb5a-42f4-8b15-f57ce5bcc6c7"><g id="SvgjsG1182"><svg viewBox="0 0 342.85155851775386 342.85155851775386" height="342.85155851775386" width="342.85155851775386"><g><svg></svg></g><g><svg viewBox="0 0 342.85155851775386 342.85155851775386" height="342.85155851775386" width="342.85155851775386"><g><path d="M0 171.426c0-94.676 76.75-171.426 171.426-171.426 94.676 0 171.426 76.75 171.426 171.426 0 94.676-76.75 171.426-171.426 171.426-94.676 0-171.426-76.75-171.426-171.426zM171.426 334.148c89.869 0 162.722-72.853 162.722-162.722 0-89.869-72.853-162.722-162.722-162.722-89.869 0-162.722 72.853-162.722 162.722 0 89.869 72.853 162.722 162.722 162.722z" fill="white" stroke="transparent"></path><ellipse rx="164.56874808852186" ry="164.56874808852186" cx="171.42577925887693" cy="171.42577925887693" fill="white" stroke="transparent" stroke-width="0" fill-opacity="1"></ellipse></g><g transform="matrix(1,0,0,1,64.84655864529837,123.16730045879115)"><svg viewBox="0 0 213.1584412271571 96.51695760017155" height="96.51695760017155" width="213.1584412271571"><g><svg viewBox="0 0 213.1584412271571 96.51695760017155" height="96.51695760017155" width="213.1584412271571"><g><svg viewBox="0 0 213.1584412271571 96.51695760017155" height="96.51695760017155" width="213.1584412271571"><g><svg viewBox="0 0 213.1584412271571 96.51695760017155" height="96.51695760017155" width="213.1584412271571"><g id="SvgjsG1181"><svg viewBox="0 0 213.1584412271571 96.51695760017155" height="96.51695760017155" width="213.1584412271571" id="SvgjsSvg1180"><g><svg viewBox="0 0 213.1584412271571 96.51695760017155" height="96.51695760017155" width="213.1584412271571"><g transform="matrix(1,0,0,1,0,0)"><svg width="213.1584412271571" viewBox="3.0299999713897705 -35.0099983215332 77.30999755859375 35.0099983215332" height="96.51695760017155" data-palette-color="#111111"></svg></g></svg></g></svg></g></svg></g><g></g></svg></g></svg></g></svg></g></svg></g><defs><mask></mask></defs></svg></g></mask><linearGradient x1="0" x2="1" y1="0.5" y2="0.5" id="d642ca97-bbc2-40bf-860a-a3f8ce95fd9b"><stop stop-color="#ffa62e" offset="0"></stop><stop stop-color="#f71b3d" offset="1"></stop></linearGradient></svg><rect width="342.85155851775386" height="342.85155851775386" fill="none" stroke="none" visibility="hidden"></rect></g></svg></g></svg>